<?xml version="1.0" encoding="utf-8"?>
<!-- Generator: Adobe Illustrator 23.0.3, SVG Export Plug-In . SVG Version: 6.00 Build 0)  -->
<svg version="1.1" id="Layer_1" xmlns="http://www.w3.org/2000/svg" xmlns:xlink="http://www.w3.org/1999/xlink" x="0px" y="0px"
	 viewBox="0 0 1024 1024" style="enable-background:new 0 0 1024 1024;" xml:space="preserve">
<style type="text/css">
	.st0{fill:#FFFFFF;}
</style>
<path class="st0" d="M966.686,623.899c-9.773-81.666-29.323-161.25-54.514-239.447c-13.759-42.709-30.419-84.189-56.091-121.452
	c-31.701-46.014-74.789-72.958-130.812-78.579c-29.631-2.973-57.785,4.118-85.677,12.35
	c-61.172,18.056-123.359,25.124-186.493,14.903c-30.919-5.006-61.308-13.526-91.743-21.225
	c-76.445-19.338-145.323,4.995-191.165,69.261c-11.441,16.04-21.194,33.543-29.78,51.312
	c-25.091,51.925-40.443,107.249-54.53,162.924c-18.822,74.393-33.019,149.491-33.664,226.571c0,7.184-0.342,14.386,0.061,21.547
	c1.557,27.727,4.354,55.289,16.045,80.97c15.334,33.68,45.905,46.725,79.471,31.198c18.291-8.461,36.293-19.857,50.766-33.743
	c24.597-23.598,46.616-49.934,69.125-75.64c17.934-20.481,39.086-35.301,66.115-40.203c15.779-2.862,31.802-6.006,47.736-6.118
	c87.888-0.62,175.783-0.602,263.673-0.278c51.4,0.189,93.314,19.382,124.091,62.134c12.518,17.388,27.83,32.889,42.78,48.371
	c18.598,19.259,38.974,36.431,64.412,46.39c32.967,12.907,62.547,1.677,77.882-30.198c3.965-8.242,6.963-17.122,9.155-26.017
	C976.198,727.534,972.874,675.607,966.686,623.899z M315.471,527.643c-44.289,0.213-80.733-36.32-80.847-81.045
	c-0.115-45.048,35.472-81.194,80.197-81.458c44.521-0.263,80.718,35.897,80.884,80.801
	C395.871,490.671,359.773,527.429,315.471,527.643z M708.857,319.301c21.859,0.06,39.486,17.884,39.471,39.91
	c-0.015,22.133-17.489,39.677-39.523,39.682c-22.045,0.005-39.456-17.53-39.444-39.724
	C669.372,337.125,687.089,319.241,708.857,319.301z M622.269,486.36c-21.542,0.085-39.7-18.08-39.808-39.822
	c-0.108-21.888,17.617-39.622,39.62-39.641c22.066-0.018,39.759,17.552,39.718,39.442
	C661.758,468.205,643.909,486.275,622.269,486.36z M708.967,573.333c-21.823,0.096-39.537-17.668-39.611-39.721
	c-0.074-22.079,17.523-39.992,39.338-40.044c21.715-0.052,39.597,17.908,39.645,39.816
	C748.386,555.477,730.883,573.237,708.967,573.333z M795.752,486.362c-21.764,0.155-39.671-17.882-39.651-39.938
	c0.021-22.15,17.628-39.639,39.793-39.525c22.091,0.114,39.527,17.993,39.155,40.152
	C834.686,468.733,817.216,486.209,795.752,486.362z"/>
</svg>
